<?xml version="1.0" encoding="UTF-8" standalone="no"?>
<!DOCTYPE svg PUBLIC "-//W3C//DTD SVG 1.1//EN"
 "http://www.w3.org/Graphics/SVG/1.1/DTD/svg11.dtd">
<!-- Generated by graphviz version 2.43.0 (0)
 -->
<!-- Title: fullGraph Pages: 1 -->
<svg width="1447pt" height="648pt"
 viewBox="0.00 0.00 1446.85 647.50" xmlns="http://www.w3.org/2000/svg" xmlns:xlink="http://www.w3.org/1999/xlink">
<g id="graph0" class="graph" transform="scale(1 1) rotate(0) translate(4 643.5)">
<title>fullGraph</title>
<polygon fill="white" stroke="transparent" points="-4,4 -4,-643.5 1442.85,-643.5 1442.85,4 -4,4"/>
<g id="clust1" class="cluster">
<title>cluster_expressionGraph</title>
<polygon fill="none" stroke="black" points="182,-233 182,-631.5 732,-631.5 732,-233 182,-233"/>
<text text-anchor="middle" x="457" y="-616.3" font-family="Times,serif" font-size="14.00">expressionGraph</text>
</g>
<!-- Node_0xc0001962a0 -->
<g id="node1" class="node">
<title>Node_0xc0001962a0</title>
<polygon fill="none" stroke="black" points="271,-341 271,-361 395,-361 395,-341 271,-341"/>
<text text-anchor="start" x="329.11" y="-346.8" font-family="monospace" font-size="14.00">3</text>
<polygon fill="none" stroke="black" points="395,-341 395,-361 644,-361 644,-341 395,-341"/>
<text text-anchor="start" x="423.97" y="-346.8" font-family="monospace" font-size="14.00">A × b(%0, %2) :: Vector float64</text>
<polygon fill="none" stroke="black" points="271,-319 271,-341 395,-341 395,-319 271,-319"/>
<text text-anchor="start" x="323.66" y="-325.8" font-family="monospace" font-size="14.00">Op</text>
<polygon fill="none" stroke="black" points="395,-319 395,-341 644,-341 644,-319 395,-319"/>
<text text-anchor="start" x="397.52" y="-326.8" font-family="monospace" font-size="14.00">A × b :: Matrix a → Vector a → Vector a</text>
<polygon fill="none" stroke="black" points="271,-299 271,-319 395,-319 395,-299 271,-299"/>
<text text-anchor="start" x="312.76" y="-304.8" font-family="monospace" font-size="14.00">Shape</text>
<polygon fill="none" stroke="black" points="395,-299 395,-319 644,-319 644,-299 395,-299"/>
<text text-anchor="start" x="510.94" y="-304.8" font-family="monospace" font-size="14.00">(2)</text>
<polygon fill="none" stroke="black" points="271,-279 271,-299 395,-299 395,-279 271,-279"/>
<text text-anchor="start" x="273.87" y="-284.8" font-family="monospace" font-size="14.00">Overwrites Input &#45;1</text>
<polygon fill="none" stroke="black" points="395,-279 395,-299 644,-299 644,-279 395,-279"/>
<text text-anchor="start" x="474.76" y="-284.8" font-family="monospace" font-size="14.00">Data On: CPU</text>
<polygon fill="none" stroke="black" points="271,-245 271,-279 395,-279 395,-245 271,-245"/>
<text text-anchor="start" x="315.61" y="-257.8" font-family="monospace" font-size="14.00">Value</text>
<polygon fill="none" stroke="black" points="395,-245 395,-279 644,-279 644,-245 395,-245"/>
<text text-anchor="start" x="479.42" y="-264.8" font-family="monospace" font-size="14.00">Vector (2) [1]</text>
<text text-anchor="start" x="486.42" y="-250.8" font-family="monospace" font-size="14.00">[12.4 &#160;&#160;6.4]</text>
</g>
<!-- Node_0xc000196000 -->
<g id="node2" class="node">
<title>Node_0xc000196000</title>
<polygon fill="lightyellow" stroke="transparent" points="8,-4 8,-129 250,-129 250,-4 8,-4"/>
<polygon fill="none" stroke="#00ff00" points="8,-108.5 8,-128.5 132,-128.5 132,-108.5 8,-108.5"/>
<text text-anchor="start" x="66.11" y="-114.3" font-family="monospace" font-size="14.00">0</text>
<polygon fill="none" stroke="#00ff00" points="132,-108.5 132,-128.5 250,-128.5 250,-108.5 132,-108.5"/>
<text text-anchor="start" x="134.6" y="-114.3" font-family="monospace" font-size="14.00">W :: Matrix float64</text>
<polygon fill="none" stroke="#00ff00" points="8,-88.5 8,-108.5 132,-108.5 132,-88.5 8,-88.5"/>
<text text-anchor="start" x="49.76" y="-94.3" font-family="monospace" font-size="14.00">Shape</text>
<polygon fill="none" stroke="#00ff00" points="132,-88.5 132,-108.5 250,-108.5 250,-88.5 132,-88.5"/>
<text text-anchor="start" x="174.66" y="-94.3" font-family="monospace" font-size="14.00">(2, 2)</text>
<polygon fill="none" stroke="#00ff00" points="8,-68.5 8,-88.5 132,-88.5 132,-68.5 8,-68.5"/>
<text text-anchor="start" x="10.87" y="-74.3" font-family="monospace" font-size="14.00">Overwrites Input &#45;1</text>
<polygon fill="none" stroke="#00ff00" points="132,-68.5 132,-88.5 250,-88.5 250,-68.5 132,-68.5"/>
<text text-anchor="start" x="146.26" y="-74.3" font-family="monospace" font-size="14.00">Data On: CPU</text>
<polygon fill="none" stroke="#00ff00" points="8,-3.5 8,-68.5 132,-68.5 132,-3.5 8,-3.5"/>
<text text-anchor="start" x="52.61" y="-31.8" font-family="monospace" font-size="14.00">Value</text>
<polygon fill="none" stroke="#00ff00" points="132,-3.5 132,-68.5 250,-68.5 250,-3.5 132,-3.5"/>
<text text-anchor="start" x="138.1" y="-54.3" font-family="monospace" font-size="14.00">Matrix (2, 2) [2 1]</text>
<text text-anchor="start" x="153.65" y="-31.76" font-family="monospace" font-size="14.00">⎡0.9 &#160;0.7⎤</text>
<text text-anchor="start" x="153.65" y="-9.22" font-family="monospace" font-size="14.00">⎣0.4 &#160;0.2⎦</text>
</g>
<!-- Node_0xc0001962a0&#45;&gt;Node_0xc000196000 -->
<g id="edge1" class="edge">
<title>Node_0xc0001962a0:anchor&#45;&gt;Node_0xc000196000:anchor</title>
<path fill="none" stroke="black" d="M371.25,-240.69C327.74,-209.59 274.63,-171.62 229.24,-139.16"/>
<polygon fill="black" stroke="black" points="231.03,-136.14 220.86,-133.17 226.96,-141.84 231.03,-136.14"/>
<text text-anchor="middle" x="364.25" y="-229.49" font-family="Times,serif" font-size="14.00"> 0 </text>
</g>
<!-- Node_0xc0001961c0 -->
<g id="node3" class="node">
<title>Node_0xc0001961c0</title>
<polygon fill="lightyellow" stroke="transparent" points="338,-19.5 338,-113.5 576,-113.5 576,-19.5 338,-19.5"/>
<polygon fill="none" stroke="#00ff00" points="338,-93.5 338,-113.5 462,-113.5 462,-93.5 338,-93.5"/>
<text text-anchor="start" x="396.11" y="-99.3" font-family="monospace" font-size="14.00">2</text>
<polygon fill="none" stroke="#00ff00" points="462,-93.5 462,-113.5 576,-113.5 576,-93.5 462,-93.5"/>
<text text-anchor="start" x="464.91" y="-99.3" font-family="monospace" font-size="14.00">x :: Vector float64</text>
<polygon fill="none" stroke="#00ff00" points="338,-73.5 338,-93.5 462,-93.5 462,-73.5 338,-73.5"/>
<text text-anchor="start" x="379.76" y="-79.3" font-family="monospace" font-size="14.00">Shape</text>
<polygon fill="none" stroke="#00ff00" points="462,-73.5 462,-93.5 576,-93.5 576,-73.5 462,-73.5"/>
<text text-anchor="start" x="510.44" y="-79.3" font-family="monospace" font-size="14.00">(2)</text>
<polygon fill="none" stroke="#00ff00" points="338,-53.5 338,-73.5 462,-73.5 462,-53.5 338,-53.5"/>
<text text-anchor="start" x="340.87" y="-59.3" font-family="monospace" font-size="14.00">Overwrites Input &#45;1</text>
<polygon fill="none" stroke="#00ff00" points="462,-53.5 462,-73.5 576,-73.5 576,-53.5 462,-53.5"/>
<text text-anchor="start" x="474.26" y="-59.3" font-family="monospace" font-size="14.00">Data On: CPU</text>
<polygon fill="none" stroke="#00ff00" points="338,-19.5 338,-53.5 462,-53.5 462,-19.5 338,-19.5"/>
<text text-anchor="start" x="382.61" y="-32.3" font-family="monospace" font-size="14.00">Value</text>
<polygon fill="none" stroke="#00ff00" points="462,-19.5 462,-53.5 576,-53.5 576,-19.5 462,-19.5"/>
<text text-anchor="start" x="478.92" y="-39.3" font-family="monospace" font-size="14.00">Vector (2) [1]</text>
<text text-anchor="start" x="495.66" y="-25.3" font-family="monospace" font-size="14.00">[ &#160;5 &#160;&#160;&#160;7]</text>
</g>
<!-- Node_0xc0001962a0&#45;&gt;Node_0xc0001961c0 -->
<g id="edge2" class="edge">
<title>Node_0xc0001962a0:anchor&#45;&gt;Node_0xc0001961c0:anchor</title>
<path fill="none" stroke="black" d="M457,-240.69C457,-206.01 457,-162.8 457,-128.22"/>
<polygon fill="black" stroke="black" points="460.5,-127.78 457,-117.78 453.5,-127.78 460.5,-127.78"/>
<text text-anchor="middle" x="450" y="-229.49" font-family="Times,serif" font-size="14.00"> 1 </text>
</g>
<!-- Node_0xc000196380 -->
<g id="node4" class="node">
<title>Node_0xc000196380</title>
<polygon fill="none" stroke="#ff0000" points="380,-577.5 380,-597.5 499,-597.5 499,-577.5 380,-577.5"/>
<text text-anchor="start" x="435.61" y="-583.3" font-family="monospace" font-size="14.00">4</text>
<polygon fill="none" stroke="#ff0000" points="499,-577.5 499,-597.5 716,-597.5 716,-577.5 499,-577.5"/>
<text text-anchor="start" x="507.31" y="-583.3" font-family="monospace" font-size="14.00">+ false(%3, %1) :: Vector float64</text>
<polygon fill="none" stroke="#ff0000" points="380,-555.5 380,-577.5 499,-577.5 499,-555.5 380,-555.5"/>
<text text-anchor="start" x="430.16" y="-562.3" font-family="monospace" font-size="14.00">Op</text>
<polygon fill="none" stroke="#ff0000" points="499,-555.5 499,-577.5 716,-577.5 716,-555.5 499,-555.5"/>
<text text-anchor="start" x="501.86" y="-563.3" font-family="monospace" font-size="14.00">+ false :: Vector a → a → Vector a</text>
<polygon fill="none" stroke="#ff0000" points="380,-535.5 380,-555.5 499,-555.5 499,-535.5 380,-535.5"/>
<text text-anchor="start" x="419.26" y="-541.3" font-family="monospace" font-size="14.00">Shape</text>
<polygon fill="none" stroke="#ff0000" points="499,-535.5 499,-555.5 716,-555.5 716,-535.5 499,-535.5"/>
<text text-anchor="start" x="598.94" y="-541.3" font-family="monospace" font-size="14.00">(2)</text>
<polygon fill="none" stroke="#ff0000" points="380,-515.5 380,-535.5 499,-535.5 499,-515.5 380,-515.5"/>
<text text-anchor="start" x="382.7" y="-521.3" font-family="monospace" font-size="14.00">Overwrites Input 0</text>
<polygon fill="none" stroke="#ff0000" points="499,-515.5 499,-535.5 716,-535.5 716,-515.5 499,-515.5"/>
<text text-anchor="start" x="562.76" y="-521.3" font-family="monospace" font-size="14.00">Data On: CPU</text>
<polygon fill="none" stroke="#ff0000" points="380,-481.5 380,-515.5 499,-515.5 499,-481.5 380,-481.5"/>
<text text-anchor="start" x="422.11" y="-494.3" font-family="monospace" font-size="14.00">Value</text>
<polygon fill="none" stroke="#ff0000" points="499,-481.5 499,-515.5 716,-515.5 716,-481.5 499,-481.5"/>
<text text-anchor="start" x="567.42" y="-501.3" font-family="monospace" font-size="14.00">Vector (2) [1]</text>
<text text-anchor="start" x="574.42" y="-487.3" font-family="monospace" font-size="14.00">[12.4 &#160;&#160;6.4]</text>
</g>
<!-- Node_0xc000196380&#45;&gt;Node_0xc0001962a0 -->
<g id="edge3" class="edge">
<title>Node_0xc000196380:anchor&#45;&gt;Node_0xc0001962a0:anchor</title>
<path fill="none" stroke="black" d="M524.21,-477.19C512.04,-445.82 497.15,-407.47 484.49,-374.84"/>
<polygon fill="black" stroke="black" points="487.69,-373.41 480.81,-365.35 481.16,-375.94 487.69,-373.41"/>
<text text-anchor="middle" x="517.21" y="-465.99" font-family="Times,serif" font-size="14.00"> 0 </text>
</g>
<!-- Node_0xc0001960e0 -->
<g id="node5" class="node">
<title>Node_0xc0001960e0</title>
<polygon fill="lightyellow" stroke="transparent" points="664.5,-26.5 664.5,-106.5 883.5,-106.5 883.5,-26.5 664.5,-26.5"/>
<polygon fill="none" stroke="#00ff00" points="665,-86.5 665,-106.5 789,-106.5 789,-86.5 665,-86.5"/>
<text text-anchor="start" x="723.11" y="-92.3" font-family="monospace" font-size="14.00">1</text>
<polygon fill="none" stroke="#00ff00" points="789,-86.5 789,-106.5 884,-106.5 884,-86.5 789,-86.5"/>
<text text-anchor="start" x="803.81" y="-92.3" font-family="monospace" font-size="14.00">b :: float64</text>
<polygon fill="none" stroke="#00ff00" points="665,-66.5 665,-86.5 789,-86.5 789,-66.5 665,-66.5"/>
<text text-anchor="start" x="706.76" y="-72.3" font-family="monospace" font-size="14.00">Shape</text>
<polygon fill="none" stroke="#00ff00" points="789,-66.5 789,-86.5 884,-86.5 884,-66.5 789,-66.5"/>
<text text-anchor="start" x="831.84" y="-72.3" font-family="monospace" font-size="14.00">()</text>
<polygon fill="none" stroke="#00ff00" points="665,-46.5 665,-66.5 789,-66.5 789,-46.5 665,-46.5"/>
<text text-anchor="start" x="667.87" y="-52.3" font-family="monospace" font-size="14.00">Overwrites Input &#45;1</text>
<polygon fill="none" stroke="#00ff00" points="789,-46.5 789,-66.5 884,-66.5 884,-46.5 789,-46.5"/>
<text text-anchor="start" x="791.76" y="-52.3" font-family="monospace" font-size="14.00">Data On: CPU</text>
<polygon fill="none" stroke="#00ff00" points="665,-26.5 665,-46.5 789,-46.5 789,-26.5 665,-26.5"/>
<text text-anchor="start" x="709.61" y="-32.3" font-family="monospace" font-size="14.00">Value</text>
<polygon fill="none" stroke="#00ff00" points="789,-26.5 789,-46.5 884,-46.5 884,-26.5 789,-26.5"/>
<text text-anchor="start" x="805.76" y="-32.3" font-family="monospace" font-size="14.00">float64 &#160;&#160;3</text>
</g>
<!-- Node_0xc000196380&#45;&gt;Node_0xc0001960e0 -->
<g id="edge4" class="edge">
<title>Node_0xc000196380:anchor&#45;&gt;Node_0xc0001960e0:anchor</title>
<path fill="none" stroke="black" d="M606.95,-477.22C634.53,-445.75 665.88,-405.57 687,-365 728.72,-284.86 753.14,-181.87 765,-120.47"/>
<polygon fill="black" stroke="black" points="768.45,-121.09 766.87,-110.62 761.57,-119.79 768.45,-121.09"/>
<text text-anchor="middle" x="599.95" y="-466.02" font-family="Times,serif" font-size="14.00"> 1 </text>
</g>
<!-- outsideRoot -->
<!-- insideInputs -->
<!-- outsideRoot&#45;&gt;insideInputs -->
<!-- outsideExprG -->
<!-- outsideRoot&#45;&gt;outsideExprG -->
<!-- insideExprG -->
<!-- insideInputs&#45;&gt;insideExprG -->
<!-- outsideExprG&#45;&gt;insideExprG -->
</g>
</svg>
